<svg width="65" height="40" viewBox="0 0 288 177" fill="none" xmlns="http://www.w3.org/2000/svg">
<path d="M119 4.99999C85.4 15 73.6667 44.5 72 58C79 44.5 106.5 29.5 129.5 41.5C152.5 53.5 150 66 175.5 78.5C210 95.4118 229.505 90.4563 251 81.5C269 74 282.833 47.5 287.5 33.5C285 39.6667 275.2 52.3 256 53.5C232 55 226 47.5 221 44.5C216 41.5 194.5 19 190.5 16C186.5 13 161 -7.50001 119 4.99999Z" fill="white"/>
<path d="M47 92.0023C13.4 102.002 1.66667 131.502 0 145.002C7 131.502 34.5 116.502 57.5 128.502C80.5 140.502 78 153.002 103.5 165.502C138 182.414 157.505 177.459 179 168.502C197 161.002 210.833 134.502 215.5 120.502C213 126.669 203.2 139.302 184 140.502C160 142.002 154 134.502 149 131.502C144 128.502 122.5 106.002 118.5 103.002C114.5 100.002 89 79.5023 47 92.0023Z" fill="white"/>
</svg>
